<svg xmlns="http://www.w3.org/2000/svg" width="715" height="562.859" viewBox="0 0 715 562.859">
  <g id="undraw_date_picker_re_r0p8TT" transform="translate(0 0)">
    <circle id="_7" data-name="7" cx="10.015" cy="10.015" r="10.015" transform="translate(471.092 139.731)" fill="#fff"/>
    <circle id="_6" data-name="6" cx="10.015" cy="10.015" r="10.015" transform="translate(512.821 139.731)" fill="#fff"/>
    <circle id="_5" data-name="5" cx="10.015" cy="10.015" r="10.015" transform="translate(387.636 222.49)" fill="#fff"/>
    <circle id="_4" data-name="4" cx="10.015" cy="10.015" r="10.015" transform="translate(429.365 222.49)" fill="#fff"/>
    <circle id="_3" data-name="3" cx="10.015" cy="10.015" r="10.015" transform="translate(471.092 263.868)" fill="#fff"/>
    <circle id="_2" data-name="2" cx="10.015" cy="10.015" r="10.015" transform="translate(512.821 263.868)" fill="#fff"/>
    <circle id="_1" data-name="1" cx="10.015" cy="10.015" r="10.015" transform="translate(554.548 263.868)" fill="#fff"/>
    <circle id="Ellipse_28" data-name="Ellipse 28" cx="10.015" cy="10.015" r="10.015" transform="translate(338.824 210.952)" fill="#fff"/>
    <path id="Path_103" data-name="Path 103" d="M602.283,189.128a14,14,0,0,1-14.249,13.745h-66.1c-.24-.006-.479-.012-.719-.031a13.036,13.036,0,0,1-1.843-.252v-23.4a4.594,4.594,0,0,1,2.985-4.305h66.183a14.012,14.012,0,0,1,13.745,14.243Z" transform="translate(-243.907 -173.37)" fill="#298a43"/>
    <path id="Path_104" data-name="Path 104" d="M951.31,173.4H525a7.37,7.37,0,0,0-2.686.5,7.612,7.612,0,0,0-4.945,7.132V646A7.634,7.634,0,0,0,525,653.63H951.31A7.634,7.634,0,0,0,958.941,646V181.027a7.634,7.634,0,0,0-7.631-7.631ZM955.889,646a4.585,4.585,0,0,1-4.578,4.578H525A4.585,4.585,0,0,1,520.422,646V181.027A4.586,4.586,0,0,1,525,176.448H951.31a4.585,4.585,0,0,1,4.578,4.579Z" transform="translate(-243.942 -173.396)" fill="#298a43"/>
    <path id="Path_105" data-name="Path 105" d="M557.02,180.674a1.19,1.19,0,0,0,0,1.683h0l5.111,5.11h-12.6a1.19,1.19,0,1,0,0,2.381h12.6l-5.111,5.11a1.19,1.19,0,0,0,1.684,1.684h0l7.143-7.143a1.191,1.191,0,0,0,0-1.684l-7.143-7.143a1.191,1.191,0,0,0-1.684,0Z" transform="translate(-243.401 -173.275)" fill="#fff"/>
    <path id="Path_106" data-name="Path 106" d="M858.16,341.609H589.254c-1.04,0-1.884-.456-1.884-1.017s.844-1.017,1.884-1.017H858.16c1.04,0,1.884.456,1.884,1.017S859.2,341.609,858.16,341.609Z" transform="translate(-242.72 -170.497)" fill="#82e39c"/>
    <path id="Path_107" data-name="Path 107" d="M858.16,297.431H589.254c-1.04,0-1.884-.456-1.884-1.017s.844-1.017,1.884-1.017H858.16c1.04,0,1.884.456,1.884,1.017S859.2,297.431,858.16,297.431Z" transform="translate(-242.72 -171.268)" fill="#82e39c"/>
    <path id="Path_108" data-name="Path 108" d="M859.023,382.872h-270.4a1.017,1.017,0,1,1,0-2.035h270.4a1.017,1.017,0,0,1,0,2.035Z" transform="translate(-242.716 -169.777)" fill="#82e39c"/>
    <path id="Path_109" data-name="Path 109" d="M859.023,422.872h-270.4a1.017,1.017,0,1,1,0-2.035h270.4a1.017,1.017,0,0,1,0,2.035Z" transform="translate(-242.716 -169.079)" fill="#82e39c"/>
    <path id="Path_110" data-name="Path 110" d="M859.023,463.872h-270.4a1.017,1.017,0,1,1,0-2.035h270.4a1.017,1.017,0,0,1,0,2.035Z" transform="translate(-242.716 -168.364)" fill="#82e39c"/>
    <path id="Path_111" data-name="Path 111" d="M823.37,464.661V297.027c0-.348.456-.631,1.017-.631s1.017.282,1.017.631V464.661c0,.348-.456.631-1.017.631S823.37,465.009,823.37,464.661Z" transform="translate(-238.603 -171.25)" fill="#82e39c"/>
    <path id="Path_112" data-name="Path 112" d="M782.37,464.661V297.027c0-.348.456-.631,1.018-.631s1.017.282,1.017.631V464.661c0,.348-.456.631-1.017.631S782.37,465.009,782.37,464.661Z" transform="translate(-239.319 -171.25)" fill="#82e39c"/>
    <path id="Path_113" data-name="Path 113" d="M741.37,464.661V297.027c0-.348.456-.631,1.018-.631s1.018.282,1.018.631V464.661c0,.348-.456.631-1.018.631S741.37,465.009,741.37,464.661Z" transform="translate(-240.034 -171.25)" fill="#82e39c"/>
    <path id="Path_114" data-name="Path 114" d="M701.37,464.661V297.027c0-.348.456-.631,1.018-.631s1.018.282,1.018.631V464.661c0,.348-.456.631-1.018.631S701.37,465.009,701.37,464.661Z" transform="translate(-240.732 -171.25)" fill="#82e39c"/>
    <path id="Path_115" data-name="Path 115" d="M659.37,507.234V297.187a1.05,1.05,0,0,1,2.035,0V507.234a1.05,1.05,0,0,1-2.035,0Z" transform="translate(-241.464 -171.25)" fill="#82e39c"/>
    <path id="Path_116" data-name="Path 116" d="M617.37,507.234V297.187a1.05,1.05,0,0,1,2.035,0V507.234a1.05,1.05,0,0,1-2.035,0Z" transform="translate(-242.197 -171.25)" fill="#82e39c"/>
    <path id="Path_117" data-name="Path 117" d="M588.625,504.88a1.017,1.017,0,0,1,0-2.035l103.538-.449a1.044,1.044,0,0,1,1.022,1.013,1.017,1.017,0,0,1-1.013,1.021l-103.538.449Z" transform="translate(-242.716 -167.656)" fill="#82e39c"/>
    <path id="Path_118" data-name="Path 118" d="M663.024,253.612a1.017,1.017,0,1,1,0-2.035l145.216-.181h0a1.017,1.017,0,0,1,0,2.035l-145.216.181Z" transform="translate(-241.418 -172.035)" fill="#298a43"/>
    <path id="Path_119" data-name="Path 119" d="M711.685,580.3a20.385,20.385,0,1,1,20.385-20.385A20.385,20.385,0,0,1,711.685,580.3Z" transform="translate(-240.907 -167.009)" fill="#298a43"/>
    <path id="Path_120" data-name="Path 120" d="M719.55,557.725h-6.033v-6.033a2.011,2.011,0,1,0-4.022,0v6.033h-6.033a2.011,2.011,0,0,0,0,4.022H709.5v6.033a2.011,2.011,0,0,0,4.022,0v-6.032h6.033a2.011,2.011,0,1,0,0-4.022Z" transform="translate(-240.73 -166.832)" fill="#fff"/>
    <path id="Path_121" data-name="Path 121" d="M757.685,580.3a20.385,20.385,0,1,1,20.385-20.385A20.385,20.385,0,0,1,757.685,580.3Z" transform="translate(-240.105 -167.009)" fill="#298a43"/>
    <path id="Path_122" data-name="Path 122" d="M767.834,568.429l-5.31-6.217a8.624,8.624,0,1,0-2.181,2.146l5.17,6.053a1.526,1.526,0,1,0,2.321-1.982Zm-17.948-11.218a5.6,5.6,0,1,1,5.6,5.6,5.6,5.6,0,0,1-5.6-5.6Z" transform="translate(-239.938 -166.85)" fill="#fff"/>
    <path id="Path_123" data-name="Path 123" d="M663.024,581.613a1.017,1.017,0,1,1,0-2.035l145.216-.182h0a1.017,1.017,0,0,1,0,2.035l-145.216.182Z" transform="translate(-241.418 -166.313)" fill="#298a43"/>
    <path id="Path_124" data-name="Path 124" d="M231.731,539.87h12.98l6.175-50.061H231.729Z" transform="translate(4.043 8.545)" fill="#e5f8ea"/>
    <path id="Path_125" data-name="Path 125" d="M477.112,708.34v16.818H518.96v-.529a16.291,16.291,0,0,0-16.287-16.289l-7.654-5.8-.4.163-13.858,5.637Z" transform="translate(-244.644 -164.165)" fill="#298a43"/>
    <path id="Path_126" data-name="Path 126" d="M116.468,523.2l11.616,5.789,27.859-42.05L138.8,478.39Z" transform="translate(2.032 8.346)" fill="#e5f8ea"/>
    <path id="Path_127" data-name="Path 127" d="M356.672,705.7l37.452,18.66.234-.468a16.281,16.281,0,0,0-7.305-21.844l-4.263-8.6-.448-.031-14.9-1.15-.305-.153-2.971-1.475Z" transform="translate(-246.745 -164.372)" fill="#298a43"/>
    <path id="Path_128" data-name="Path 128" d="M491.038,447.942l-71.568,2.5-.5-.725s-6.1,14.244-6.1,26.454c0,4.059,2.823,30.61,1.388,35.633-.179.625,1.05,2.156.647,5.065-.261,1.888-1.7.436-2.035,3.052-.238,1.878,2.3,2.915,2.035,5.087-.29,2.373-3.782,10.061-4.1,12.7-3.346,28.108-7.8,68.828-7.8,68.828s-17.893,47.925-21.678,48.7c-6.353,1.307-10.643,12.859-7.122,15.262,1.677,1.144,23.345,8.84,23.345,8.84,1.191.215,4.915-1.653,2.542-6.071-.437-.813,2.168,1.256,2.6.283.46-1.035-.443-5.155.084-6.3,4.735-10.32,12.006-24.622,18.9-31.966a69.8,69.8,0,0,0,18.4-39.441l15.8-87.628,5.416,24.573,4.482,4.429-1.23,10.326.212,10.023,11.192,41.715s1.678,77.9-1.017,80.378C473.47,681,467.275,697.509,479,699l21.3-1.644s2.87-6.049,1.435-8.2-1.349-1.565.4-5.088,1.033-9.493,1.033-9.493a703.251,703.251,0,0,0,3.3-84.44c-1.068-46.3-7.54-99.483-7.54-100.566a7.157,7.157,0,0,1,.6-3.228v-2.922l-2.749-10.354Z" transform="translate(-246.461 -168.606)" fill="#298a43"/>
    <path id="Path_129" data-name="Path 129" d="M397.965,474.61a8.128,8.128,0,0,1,4.205-11.731l-.514-51.423,12.684,8.024-1.458,48.738a8.172,8.172,0,0,1-14.917,6.393Z" transform="translate(-246.044 -169.243)" fill="#e5f8ea"/>
    <path id="Path_130" data-name="Path 130" d="M400.854,454.677l1.08-.052.129,0,3.995-.014,6.579-.014.477-.007.215.041,2.246.391.093-.6,4.378-8.363,3.366-4.63-1.225-5.455-2.415-3.008,4.1-4.971.518-2.455,3.434-16.147,11.381-53.557V355.8l.239-1.136,3.7-17.4-1.14-4.375-1.271-4.8a13.132,13.132,0,0,0-5.307-7.478,12.963,12.963,0,0,0-3.695-1.726,12.7,12.7,0,0,0-5.171-.426l-.019.006a13.1,13.1,0,0,0-2.883.7l-.371.145a13.163,13.163,0,0,0-1.5.723,12.972,12.972,0,0,0-6.2,7.874l-12.059,13.433-2.121,7.6-.682,2.441-2.186,13.013.033,51.211-.389,2.32-.553,12.856,2.163,2.947-2.443,3.573-.084,1.961-.016.5,3.263,3.314.208,7.147Z" transform="translate(-246.037 -170.867)" fill="#367d49"/>
    <path id="Path_131" data-name="Path 131" d="M412.37,467.328c18.071,3.125,30.188,1.935,37.646-9.157,9.729-12.388,27.421,2.239,42.349,7.678l1.77-1.913,3.012-3.246-2.767-3.134,2.767-6.044-2.31-7.458-2.951-.539.794-6.42,1.241-3.754-3.642-4-3.093-9.981,2.228-20.888a139.147,139.147,0,0,0-16.91-82.637l-8.455-7.59-3.51-3.154-4.711-8.791-4.975.58-13.471,1.557-.458,1.1-3.307,7.977-12.012,12.9a17.564,17.564,0,0,0-4.623,13.7h0l.346,3.48.254,2.5,1.2,12.047,4.894,49.214.366,2.615,3.938,28.3c-6.4,6.186-6.789,4.836-9.506,15.723-.305,1.211-3.846,3.907-4.07,5.087C414.089,454.753,412.37,467.328,412.37,467.328Z" transform="translate(-245.773 -171.252)" fill="#367d49"/>
    <circle id="Ellipse_27" data-name="Ellipse 27" cx="23.397" cy="23.397" r="23.397" transform="translate(179.89 73.07)" fill="#e5f8ea"/>
    <path id="Path_132" data-name="Path 132" d="M424.451,251.136c3.141-3.27,8.157-4.883,12.417-3.331A15.782,15.782,0,0,1,464.58,243.8a4.907,4.907,0,0,1,4.8.441,10.118,10.118,0,0,1,3.233,3.814,22.71,22.71,0,0,1-1.275,23.287c.916-1.849-1.659,1.335-4.168.5-2.155-.565-11.009-6.242-13.218-5.955s-2.926-1.495-5.087-2.035c-2.117-.677-7.521,8.074-8.6,13.864-.205,1.1-.7,2.461-1.82,2.486-1.374.031-1.786-1.938-2.945-2.677a2.366,2.366,0,0,0-3.142.963,3.856,3.856,0,0,0,.066,3.531,11.4,11.4,0,0,0,2.257,2.879l-.6.33a3.134,3.134,0,0,1-3.977-.27c-2.234,1.008-8.312-4.677-7.506-8.117a38.051,38.051,0,0,1-2.74-13.246A18.181,18.181,0,0,1,424.451,251.136Z" transform="translate(-245.643 -172.282)" fill="#298a43"/>
    <path id="Path_133" data-name="Path 133" d="M594.1,388.457a8.127,8.127,0,0,1-10.5-6.708l-50.251-10.93,10.643-10.583,47.194,12.256a8.172,8.172,0,0,1,2.917,15.965Z" transform="translate(-243.663 -170.137)" fill="#e5f8ea"/>
    <path id="Path_134" data-name="Path 134" d="M459.807,316.679a13.108,13.108,0,0,0-7.941,3.052,12.713,12.713,0,0,0-3.038,3.683,12.9,12.9,0,0,0-1.556,4.951v.01a13.029,13.029,0,0,0,6.768,12.781l16.554,8.971,2.1,1.134c14.1,14.375,37.887,21.89,65.247,26.875l15.73,4.3,5.288-1.963,1.28,5.028,5.266.172,2.863-.6,5.991-2.349,1.144-2.3v-.01l2.459-10.907.017-.072v-.01l.573-2.5-3.378-1.563-2.939-3.926-5.314.107-4.846.422-1.42-3.321-61.411-28.417-12.716-5.89-.032-.019-.606-.284L469.3,316.37l-4.516.143Z" transform="translate(-245.166 -170.902)" fill="#367d49"/>
    <path id="Path_135" data-name="Path 135" d="M310.38,720.926a49.524,49.524,0,0,1-39.944-14.9c-6.706-7.07-11.307-16.169-15.757-24.969-1.3-2.561-2.634-5.209-4-7.747a15.805,15.805,0,0,1,1.639-17.634,15.539,15.539,0,0,1,16.587-5.3l.649.188,5.844,22.805c.872-3.4,2.743-11.066,3.925-18.575l.1-.629.582.259a79.494,79.494,0,0,1,17.079,10.292,81.933,81.933,0,0,1,30.637,61.7l.015.709Z" transform="translate(-248.628 -165.086)" fill="#298a43"/>
    <path id="Path_136" data-name="Path 136" d="M533.454,726.339l-283.613.313a1.211,1.211,0,1,1,0-2.423l283.613-.313a1.212,1.212,0,0,1,0,2.423Z" transform="translate(-248.63 -163.792)" fill="#298a43"/>
    <path id="Path_137" data-name="Path 137" d="M761.873,240.374H707.948a4.578,4.578,0,0,1,0-9.157h53.925a4.578,4.578,0,0,1,0,9.157Z" transform="translate(-240.697 -172.387)" fill="#298a43"/>
    <path id="Path_138" data-name="Path 138" d="M928,202.387a11.21,11.21,0,1,1,11.21-11.21A11.21,11.21,0,0,1,928,202.387Z" transform="translate(-236.974 -173.281)" fill="#298a43"/>
  </g>
</svg>
