<svg xmlns="http://www.w3.org/2000/svg" width="273.491" height="273.491" viewBox="0 0 273.491 273.491">
  <g id="Icons" transform="translate(-2.332 -2.332)">
    <g id="Rounded" transform="translate(2.332 2.332)">
      <g id="Social">
        <g id="_-Round-_-Social-_-person" data-name="-Round-/-Social-/-person">
          <g id="Group_8" data-name="Group 8">
            <path id="Path" d="M0,0H273.491V273.491H0Z" fill="none" fill-rule="evenodd"/>
            <path id="_-Icon-Color" data-name="🔹-Icon-Color" d="M95.164,95.164A45.582,45.582,0,1,0,49.582,49.582,45.569,45.569,0,0,0,95.164,95.164Zm0,22.791C64.738,117.954,4,133.224,4,163.536v11.4a11.429,11.429,0,0,0,11.4,11.4H174.932a11.429,11.429,0,0,0,11.4-11.4v-11.4C186.327,133.224,125.589,117.954,95.164,117.954Z" transform="translate(41.582 41.582)" fill="#1dae44" fill-rule="evenodd"/>
          </g>
        </g>
      </g>
    </g>
  </g>
</svg>
