<svg xmlns="http://www.w3.org/2000/svg" width="186.688" height="223.646" viewBox="0 0 186.688 223.646">
  <path id="_7385461671576590833" data-name="7385461671576590833" d="M244.308,101.645h-11.68V60.978C232.627,27.3,201.3,0,162.644,0S92.661,27.3,92.661,60.978v40.667H80.981c-6.417,0-11.681,4.543-11.681,10.178V213.468c0,5.635,5.214,10.178,11.681,10.178H244.308c6.417,0,11.681-4.543,11.681-10.178V111.823C255.988,106.188,250.724,101.645,244.308,101.645Zm-34.992,0H115.972V60.978c0-22.452,20.9-40.667,46.672-40.667s46.672,18.215,46.672,40.667Z" transform="translate(-69.3)" fill="#1dae44"/>
</svg>
