<svg xmlns="http://www.w3.org/2000/svg" width="76.643" height="76.642" viewBox="0 0 76.643 76.642">
  <path id="add" d="M38.305,0A38.319,38.319,0,1,1,11.221,11.223,38.319,38.319,0,0,1,38.305,0ZM55.239,35.426v5.761a2.494,2.494,0,0,1-2.494,2.494h-9.1v9.078a2.494,2.494,0,0,1-2.494,2.494H35.425a2.494,2.494,0,0,1-2.494-2.494V43.644H23.853a2.494,2.494,0,0,1-2.494-2.494V35.426a2.494,2.494,0,0,1,2.494-2.494h9.09V23.854a2.494,2.494,0,0,1,2.494-2.494H41.2a2.494,2.494,0,0,1,2.494,2.494v9.09h9.065a2.494,2.494,0,0,1,2.494,2.494Zm5.505-19.559a31.748,31.748,0,1,0,9.29,22.445,31.748,31.748,0,0,0-9.29-22.445Z" transform="translate(0.003)" fill="#2839d6"/>
</svg>
