<svg id="verify-verified-check" xmlns="http://www.w3.org/2000/svg" width="76.184" height="76.185" viewBox="0 0 76.184 76.185">
  <path id="Path_174" data-name="Path 174" d="M21.32,42.15a4.368,4.368,0,0,1-.026-5.927l.211-.217a4.373,4.373,0,0,1,5.269-.59,4.261,4.261,0,0,1,.688.513l.021.019c1.2,1.148,3.223,3.026,4.553,4.21l1.141,1.024,13.97-14.654a4.373,4.373,0,0,1,3.023-1.316h.016a4.625,4.625,0,0,1,.831.064,4.375,4.375,0,0,1,1.575.6,4.338,4.338,0,0,1,.655.51l.1.091a4.412,4.412,0,0,1,.527.629,4.176,4.176,0,0,1,.4.73,4.294,4.294,0,0,1,.263.805,4.25,4.25,0,0,1,.1.843v.143a4.479,4.479,0,0,1-.071.746,4.3,4.3,0,0,1-1.113,2.2L36.585,50.285a4.243,4.243,0,0,1-.634.557,4.382,4.382,0,0,1-1.532.7,4.485,4.485,0,0,1-.837.116l-.077,0a4.431,4.431,0,0,1-.769-.048l-.063-.012a4.506,4.506,0,0,1-.747-.192,4.41,4.41,0,0,1-.76-.356l-.039-.025a4.461,4.461,0,0,1-.64-.467l-.039-.037c-.98-.909-2.044-1.834-3.12-2.769-1.864-1.62-4.45-3.957-6-5.592l-.006,0ZM38.093,0A38.074,38.074,0,1,1,11.151,11.152,38.032,38.032,0,0,1,38.093,0ZM60.077,16.108a31.1,31.1,0,1,0,9.1,21.984,30.989,30.989,0,0,0-9.1-21.984Z" fill="#1dae44"/>
</svg>
