<svg xmlns="http://www.w3.org/2000/svg" width="74.816" height="76.281" viewBox="0 0 74.816 76.281">
  <path id="pending" d="M41.693,70.228a2.892,2.892,0,1,1,.753,5.735,38.858,38.858,0,0,1-7.573.23A37.423,37.423,0,1,1,47.826,2.909a37.129,37.129,0,0,1,7.841,3.274l-.738-1.932a3.135,3.135,0,1,1,5.86-2.231l3.118,8.158a3.188,3.188,0,0,1,.2.969,3.129,3.129,0,0,1-2.18,3.486l-8.351,2.555a3.126,3.126,0,1,1-1.815-5.982l.687-.21A31.646,31.646,0,1,0,34.988,70.4a33.048,33.048,0,0,0,6.705-.173Zm-10-46.594a2.892,2.892,0,0,1,5.784,0v17.6l12.05,5.3A2.889,2.889,0,1,1,47.2,51.823L33.569,45.832a2.9,2.9,0,0,1-1.875-2.708V23.634Zm20.075,43.5a2.892,2.892,0,1,0,2.616,5.16,36.894,36.894,0,0,0,5.337-3.282,2.892,2.892,0,1,0-3.446-4.646A31.021,31.021,0,0,1,51.77,67.137Zm11.8-10.366a2.892,2.892,0,1,0,4.8,3.224A37.56,37.56,0,0,0,71.42,54.53a2.893,2.893,0,1,0-5.271-2.383A31.687,31.687,0,0,1,63.568,56.771Zm5.315-14.832a2.892,2.892,0,1,0,5.759.545,38.245,38.245,0,0,0,.086-6.252,2.892,2.892,0,1,0-5.771.405A32.293,32.293,0,0,1,68.882,41.939Zm-2.4-15.557A2.892,2.892,0,0,0,71.8,24.1a37.5,37.5,0,0,0-2.935-5.526A2.892,2.892,0,0,0,64,21.7,31.573,31.573,0,0,1,66.486,26.382Z" transform="translate(0 0)" fill="#ff970c"/>
</svg>
