<svg id="Black" xmlns="http://www.w3.org/2000/svg" xmlns:xlink="http://www.w3.org/1999/xlink" width="99.99" height="99.899" viewBox="0 0 99.99 99.899">
  <defs>
    <clipPath id="clip-path">
      <path id="Path_41" data-name="Path 41" d="M205.845,163.612A32.774,32.774,0,0,0,142.8,176.169c0,4.9.172,9.568,2.107,13.74Z" transform="translate(-142.8 -143.4)" fill="#1dae44"/>
    </clipPath>
    <clipPath id="clip-path-2">
      <circle id="Ellipse_10" data-name="Ellipse 10" cx="33.501" cy="33.501" r="33.501" fill="#1dae44"/>
    </clipPath>
  </defs>
  <g id="Group_4" data-name="Group 4" transform="translate(16.689 16.772)">
    <path id="Path_37" data-name="Path 37" d="M190.852,314.644a29.347,29.347,0,0,1-26.9-17.632l34.619-15.073-.387-.839L156.9,298.839l.409.946h0c0,.021.021.021.021.043v.021h0a32.769,32.769,0,0,0,29.63,18.406c14.815,0,28.426-10.02,32.339-23.566C215.214,305.849,203.452,314.644,190.852,314.644Z" transform="translate(-153.868 -251.491)" fill="#1dae44"/>
    <path id="Path_38" data-name="Path 38" d="M228.955,311.078a24.671,24.671,0,0,1-22.62-14.837l30.641-13.353-.323-.688L200.4,297.789l.344.8h0c0,.021.021.021.021.043v.022h0a27.565,27.565,0,0,0,24.921,15.482c12.45,0,23.975-8.214,27.351-19.288C249.6,304.218,239.556,311.078,228.955,311.078Z" transform="translate(-188.015 -252.355)" fill="#1dae44"/>
    <path id="Path_39" data-name="Path 39" d="M283.9,292.853a23.536,23.536,0,0,1-22.62,16.428c-9.483,0-17.4-4.924-21.158-12.772h0v-.022a.021.021,0,0,0-.022-.021h0l-.3-.688L272.935,281.5l.108.194a5.135,5.135,0,0,0,4.58,2.645,6.267,6.267,0,0,0,5.268-2.086S285.6,285.327,283.9,292.853Z" transform="translate(-218.943 -251.805)" fill="#1dae44"/>
    <g id="Group_3" data-name="Group 3">
      <g id="Group_2" data-name="Group 2" clip-path="url(#clip-path)">
        <g id="Group_1" data-name="Group 1" transform="translate(0 0.022)" clip-path="url(#clip-path-2)">
          <path id="Path_40" data-name="Path 40" d="M161.628,239.264c-.021-.473-.107-1.935-.194-4.085l-.86-35.027h0c.022-1.011.022-1.011-.043-1.075l-.064-.064h-.021l-.753-.581v-1.14l-2.322-1.462h-5.5v1.333l-.882.43v1.376l.323.43v1.011l-7.633.409v-.8l-.946-.43v-1.054l-.753-.43v-.8l-.839-.774-2.451-.839-6.9.129-1.806,1.011.064,1.441-.989.559v1.548h.43l-.817,37.435-.366.237.065,1.247,10.988.731v-.086l-.172.064v-1.441l-.258-.064.129-12.536s.28-7.719,6-10.665c0,0,.065.043.172.129a3.177,3.177,0,0,0-.28.172c-4.666,2.838-4.9,9.353-4.9,9.353l-.108,11.353.237.043v1.312l4.3-1.57-.043-1.269h0l.366-.237v2.172l-.28.215.043,1.075-.021-.473,5.333-3.827.065.022.043-.086,1.462-1.054.021,6.73h-.43v1.4l7.031,1.419,3.978-1.892v-1.054h-.409Zm-22.964-26.749V205.4c.021-.108.409-2.215,1.548-2.623h.021l.021.021a3.676,3.676,0,0,1,1.7,2.666l.151,7.074h-3.44Zm4.515,0-.022-7.1h0c.022-.107.6-2.473,1.742-2.881h.021l.021.021a4.22,4.22,0,0,1,1.806,2.838v7.139H143.18Zm1.226,22.061-.3-9.031c0-.043-.258-5.247,2.774-8.644a15.539,15.539,0,0,1,4.515,9.612l.022,3.526-.022.021-1.935,1.247-.064-.021-.043.086-2.215,1.441-.065-.021-.043.086Zm.731-.194,1.634-1.054-1.634,2.924Zm.452,1.828,1.505-2.688.129,1.527Zm1.849-3.311,1.656-1.075-1.527,2.731Zm.624,1.527,1.333-2.408.108,1.376Zm1.806-1.4-.108-1.634,1.4-.9Zm.559-.28.968-1.892v1.2Zm-2.494-20.234V205.4a4.62,4.62,0,0,1,1.763-3.032l.021-.021.021.021a3.758,3.758,0,0,1,1.892,2.924l.129,7.246h-3.827Zm13.353,19.115.129,2.8C161.37,233.565,161.327,232.641,161.284,231.63Z" transform="translate(-131.418 -184.476)" fill="#1dae44"/>
        </g>
      </g>
    </g>
    <path id="Path_42" data-name="Path 42" d="M224.027,143.4a33.3,33.3,0,0,0-20.427,6.967c.667-.3,16.707-7.332,27.222,4.816a15.263,15.263,0,0,1,.989-3.01,14.225,14.225,0,0,0-.086,2.451,9.979,9.979,0,0,0,1.935,4.214,9.865,9.865,0,0,0,.71.946l1.957,2.322h0c.043-2.731.9-3.72.9-3.72a13.326,13.326,0,0,0,.452,3.161,8.4,8.4,0,0,0,2.817,4.429l.3.258c.108.086.237.172.344.258a.653.653,0,0,1,.151.108,15.53,15.53,0,0,0,2.6,1.462,3.367,3.367,0,0,1,.516-3.978c-.731,3.139,1.355,4.644,2.215,4.73a7.187,7.187,0,0,0,5.913-1.957s-5.311-11.074-11.633-14.987c0,0,7.762,3.892,13.095,16.686a20.516,20.516,0,0,1,1.462,6.171,3.172,3.172,0,0,0,2.064,2.172A33.486,33.486,0,0,0,224.027,143.4Z" transform="translate(-190.527 -143.4)" fill="#1dae44"/>
  </g>
  <g id="Group_5" data-name="Group 5" transform="translate(0)">
    <path id="Path_43" data-name="Path 43" d="M121.289,184.667a.69.69,0,0,0-.3.021.805.805,0,0,0-.258.151.672.672,0,0,0-.194.237,1.906,1.906,0,0,0-.172.366,1.218,1.218,0,0,0-.065.387,1.6,1.6,0,0,1,.559-.086,1.338,1.338,0,0,1,.559.194l.495.323.559-.9-.882-.538A.505.505,0,0,0,121.289,184.667Z" transform="translate(-108.449 -159.015)" fill="#1dae44"/>
    <path id="Path_44" data-name="Path 44" d="M121.571,194.1h-.108c-.043,0-.064.022-.108.043a.168.168,0,0,0-.086.086.255.255,0,0,0-.021.215.343.343,0,0,0,.151.194l.495.3.3-.473-.495-.323C121.635,194.122,121.592,194.122,121.571,194.1Z" transform="translate(-109.183 -166.427)" fill="#1dae44"/>
    <path id="Path_45" data-name="Path 45" d="M175.209,130.066l-.452-.624a.61.61,0,0,0-.215-.194,1.316,1.316,0,0,0-.258-.108.613.613,0,0,0-.28,0,1.316,1.316,0,0,0-.258.108.688.688,0,0,0-.28.473.619.619,0,0,0,.021.28.815.815,0,0,0,.129.28l.452.624a1.019,1.019,0,0,0,.215.215.662.662,0,0,0,.258.108.614.614,0,0,0,.28,0,1.316,1.316,0,0,0,.258-.108.675.675,0,0,0,.28-.495.619.619,0,0,0-.021-.28A.667.667,0,0,0,175.209,130.066Z" transform="translate(-150.178 -115.423)" fill="#1dae44"/>
    <path id="Path_46" data-name="Path 46" d="M135.478,168.506a.61.61,0,0,0-.194-.215l-.6-.473a.727.727,0,0,0-.258-.129.619.619,0,0,0-.28-.021.7.7,0,0,0-.28.086.61.61,0,0,0-.215.194.727.727,0,0,0-.129.258,1.226,1.226,0,0,0-.021.28,1.391,1.391,0,0,0,.086.28.672.672,0,0,0,.194.237l.6.473a.727.727,0,0,0,.258.129.619.619,0,0,0,.28.021.7.7,0,0,0,.28-.086.61.61,0,0,0,.215-.194.726.726,0,0,0,.129-.258,1.226,1.226,0,0,0,.021-.28A1,1,0,0,0,135.478,168.506Z" transform="translate(-118.811 -145.671)" fill="#1dae44"/>
    <path id="Path_47" data-name="Path 47" d="M118.32,67.779a1.7,1.7,0,0,0-.624-.387,2.215,2.215,0,0,0-.753-.129,2.191,2.191,0,0,0-.86.151,1.62,1.62,0,0,0-.624.43,1.875,1.875,0,0,0-.387.667,2.677,2.677,0,0,0-.129.86,1.419,1.419,0,0,0,.129.581,2.776,2.776,0,0,0,.194.344L113.4,71.757a3.581,3.581,0,0,1-.387-.6,4.383,4.383,0,0,1-.452-1.978,3.687,3.687,0,0,1,.387-1.72,4.049,4.049,0,0,1,1.011-1.312,4.187,4.187,0,0,1,1.032-.645,50.069,50.069,0,0,0-47.563,41.929l-.129.839a6,6,0,0,0,11.783,1.7c.021-.215.065-.43.086-.645A38.2,38.2,0,0,1,113.052,77.5c-.043-.021-.064-.043-.108-.064a1.457,1.457,0,0,1-.43-.516,1.62,1.62,0,0,1-.172-.753,1.3,1.3,0,0,1,.086-.516,1.487,1.487,0,0,1,.215-.409,1.617,1.617,0,0,1,.323-.344,4.729,4.729,0,0,1,.387-.3l.194-.151h0l4.171-3.29a3.863,3.863,0,0,0,.43-.409,4.2,4.2,0,0,0,.366-.495,3.062,3.062,0,0,0,.258-.538,1.811,1.811,0,0,0,.086-.581,1.745,1.745,0,0,0-.151-.753A1.272,1.272,0,0,0,118.32,67.779ZM76.8,108.956a3.627,3.627,0,1,1-2.989-4.171A3.643,3.643,0,0,1,76.8,108.956Zm1.785-7.805a1.594,1.594,0,0,1-1.183.645,1.594,1.594,0,0,1-.753-.129l-2.537-.989.344-.9,2.516.989a.662.662,0,0,0,.344.043.722.722,0,0,0,.3-.107.825.825,0,0,0,.237-.237,1.371,1.371,0,0,0,.172-.3,2.014,2.014,0,0,0,.086-.344.9.9,0,0,0-.021-.344.708.708,0,0,0-.151-.28.655.655,0,0,0-.28-.194.468.468,0,0,0-.28-.043.208.208,0,0,0-.172.151l-.452,1.161-1.57-.624a1.068,1.068,0,0,1-.409-.28,1.61,1.61,0,0,1-.28-.387,1.172,1.172,0,0,1-.108-.473,1.333,1.333,0,0,1,.086-.495l.366-.946.9.344-.366.946a.442.442,0,0,0,0,.237.246.246,0,0,0,.172.151l.688.28.108-.258a1.158,1.158,0,0,1,.28-.452.831.831,0,0,1,.409-.258,1.676,1.676,0,0,1,.473-.065,2.771,2.771,0,0,1,.538.129,1.993,1.993,0,0,1,.645.43,1.687,1.687,0,0,1,.344.6,2.416,2.416,0,0,1,.086.688,2.459,2.459,0,0,1-.151.688A3.759,3.759,0,0,1,78.583,101.151Zm1.4.409a.754.754,0,0,1-.108.172.386.386,0,0,1-.151.108.506.506,0,0,1-.172.043.32.32,0,0,1-.194-.043.754.754,0,0,1-.172-.108.653.653,0,0,1-.108-.15.506.506,0,0,1-.043-.172.32.32,0,0,1,.043-.194.754.754,0,0,1,.108-.172.386.386,0,0,1,.151-.107.506.506,0,0,1,.172-.043.32.32,0,0,1,.194.043c.064.043.108.064.172.107a.653.653,0,0,1,.108.151.506.506,0,0,1,.043.172A.513.513,0,0,1,79.981,101.559Zm.43-1.075a.754.754,0,0,1-.108.172.386.386,0,0,1-.151.108.506.506,0,0,1-.172.043.32.32,0,0,1-.194-.043.754.754,0,0,1-.172-.108.654.654,0,0,1-.108-.151.506.506,0,0,1-.043-.172.32.32,0,0,1,.043-.194c.043-.064.065-.108.108-.172a.386.386,0,0,1,.151-.107.506.506,0,0,1,.172-.043.32.32,0,0,1,.194.043.754.754,0,0,1,.172.107.386.386,0,0,1,.108.151.506.506,0,0,1,.043.172A.628.628,0,0,1,80.411,100.484ZM84.5,89.109a1.76,1.76,0,0,1-.3.6,1.52,1.52,0,0,1-1.1.624l-.344.43a2.739,2.739,0,0,0-.28.409L79.9,95.345l-.258.452-.215.452a1.607,1.607,0,0,1,.237.28,1.449,1.449,0,0,1,.215.409,2.968,2.968,0,0,1,.151.559,3.964,3.964,0,0,1,.022.731l-.946-.064V97.8a1.269,1.269,0,0,0-.043-.3c-.021-.086-.043-.151-.065-.215a1.278,1.278,0,0,0-.086-.172.741.741,0,0,0-.258-.258L75.7,95.388l.43-.86,2.494,1.226.3-.624.129-.323-.495-.3a1.374,1.374,0,0,1-.323-.28,1.856,1.856,0,0,1-.215-.344,1.256,1.256,0,0,1-.086-.387,1.191,1.191,0,0,1,.043-.387,1.677,1.677,0,0,1-.172-.495,2.208,2.208,0,0,1-.021-.538,2.383,2.383,0,0,1,.108-.538,2.754,2.754,0,0,1,.237-.516,2.5,2.5,0,0,1,.43-.516,1.464,1.464,0,0,1,.559-.323,1.389,1.389,0,0,1,.667-.043,1.972,1.972,0,0,1,.753.3l.882.538.344-.473.3-.366a.45.45,0,0,1-.129-.086.47.47,0,0,1-.108-.086l-.6-.473a1.624,1.624,0,0,1-.43-.516,2.145,2.145,0,0,1-.215-.624,1.64,1.64,0,0,1,.043-.645,1.761,1.761,0,0,1,.3-.6,1.693,1.693,0,0,1,1.14-.624,1.653,1.653,0,0,1,.645.065,1.761,1.761,0,0,1,.6.3l.6.473a1.966,1.966,0,0,1,.43.516,2.146,2.146,0,0,1,.215.624A2.194,2.194,0,0,1,84.5,89.109Zm5.182-4a.289.289,0,0,1-.129.151.265.265,0,0,1-.172.086.6.6,0,0,1-.194.021.4.4,0,0,1-.172-.043.289.289,0,0,1-.151-.129.265.265,0,0,1-.086-.172.6.6,0,0,1-.022-.194.405.405,0,0,1,.043-.172.289.289,0,0,1,.129-.151.265.265,0,0,1,.172-.086.6.6,0,0,1,.194-.022.4.4,0,0,1,.172.043.386.386,0,0,1,.151.108.265.265,0,0,1,.086.172.6.6,0,0,1,.022.194A.429.429,0,0,1,89.679,85.11Zm.86-.753a.289.289,0,0,1-.129.151.265.265,0,0,1-.172.086.6.6,0,0,1-.194.021.4.4,0,0,1-.172-.043.289.289,0,0,1-.151-.129.265.265,0,0,1-.086-.172.6.6,0,0,1-.022-.194.405.405,0,0,1,.043-.172.289.289,0,0,1,.129-.151.265.265,0,0,1,.172-.086.6.6,0,0,1,.194-.022.4.4,0,0,1,.172.043.289.289,0,0,1,.151.129.265.265,0,0,1,.086.172.6.6,0,0,1,.022.194A.167.167,0,0,1,90.539,84.357Zm7.719-6.967a1.127,1.127,0,0,1-.237.409,1.051,1.051,0,0,1-.387.3l-.409.215-3.032,1.7a3.536,3.536,0,0,0-.473.3l-.753.559a1.707,1.707,0,0,1-.215.581,1.791,1.791,0,0,1-.43.473,1.535,1.535,0,0,1-1.2.3l-.624.495-1.7,1.419a1.857,1.857,0,0,0-.3.28l-2.322,2.3-.667-.688,1.29-1.29-.731-.731a.613.613,0,0,0-.3-.172.813.813,0,0,0-.387.021,1.486,1.486,0,0,0-.473.258,3.691,3.691,0,0,0-.559.495l-.667-.688a4.589,4.589,0,0,1,.925-.753,2.308,2.308,0,0,1,.817-.323,1.3,1.3,0,0,1,.71.065,1.914,1.914,0,0,1,.624.43l.731.731.495-.495L88.6,83,86.819,80.96l.731-.624,1.806,2.107.538-.452.28-.237a.377.377,0,0,1-.086-.107A.469.469,0,0,0,90,81.541l-.452-.624a1.723,1.723,0,0,1-.3-1.269,1.659,1.659,0,0,1,.215-.624,1.417,1.417,0,0,1,.452-.495,1.7,1.7,0,0,1,.6-.28,2.286,2.286,0,0,1,.667-.022,1.7,1.7,0,0,1,.624.237,1.417,1.417,0,0,1,.495.452l.452.624a.45.45,0,0,1,.086.129l.065.129.409-.3a3.011,3.011,0,0,1,.344-.215L95.742,78.1l-.516-.882a1.246,1.246,0,0,0-.258-.3.666.666,0,0,0-.28-.129.36.36,0,0,0-.258.021,1.316,1.316,0,0,0-.258.108,1.011,1.011,0,0,0-.258.194,2.454,2.454,0,0,0-.237.237c-.086.086-.151.172-.215.237a2.086,2.086,0,0,1-.151.194l-.8-.538q.064-.1.194-.258a3.736,3.736,0,0,1,.28-.323c.108-.108.215-.215.344-.323a1.9,1.9,0,0,1,.366-.258,2.809,2.809,0,0,1,.581-.258,1.431,1.431,0,0,1,.6-.043,1.521,1.521,0,0,1,.6.28,2.233,2.233,0,0,1,.559.667l.516.882.323-.151.409-.215a.3.3,0,0,0,.151-.172.254.254,0,0,0-.022-.215l-1.677-3.44.86-.43,1.677,3.44a1.709,1.709,0,0,1,.129.473C98.344,77.068,98.322,77.24,98.258,77.391Zm1.161-.151L97.376,72.6l.882-.387,2.043,4.644Zm7.547-1.505a.244.244,0,0,1-.065.172.4.4,0,0,1-.129.151.432.432,0,0,1-.172.086.3.3,0,0,1-.194,0,1.483,1.483,0,0,1-.172-.065.251.251,0,0,1-.129-.129.432.432,0,0,1-.086-.172.3.3,0,0,1,0-.194.244.244,0,0,1,.065-.172.251.251,0,0,1,.129-.129.432.432,0,0,1,.172-.086.3.3,0,0,1,.194,0,.244.244,0,0,1,.172.065.251.251,0,0,1,.129.129.432.432,0,0,1,.086.172A.236.236,0,0,1,106.966,75.735Zm.774-1.269a.129.129,0,0,0-.086.021l-2.236.538c-.043.021-.086.021-.129.043l-3.225,1.075-.3-.9,1.742-.581-.323-.968a.729.729,0,0,0-.194-.3.839.839,0,0,0-.344-.151,1.557,1.557,0,0,0-.538.022,2.854,2.854,0,0,0-.731.194l-.3-.9a4.394,4.394,0,0,1,1.161-.258,2.641,2.641,0,0,1,.86.065,1.236,1.236,0,0,1,.6.366,1.793,1.793,0,0,1,.366.667l.323.968.667-.215.8-.215-.667-2.645.925-.237.667,2.666.688-.151.344-.065-.194-1.075a1.522,1.522,0,0,1,0-.624,1.773,1.773,0,0,1,.215-.559,1.848,1.848,0,0,1,.387-.43,1.5,1.5,0,0,1,.516-.28,1.855,1.855,0,0,1,.6-.086,1.62,1.62,0,0,1,.624.129l-.215.925a.849.849,0,0,0-.452-.086.755.755,0,0,0-.387.129.715.715,0,0,0-.258.3.731.731,0,0,0-.065.43l.194,1.075L110.751,73l.172.946Z" transform="translate(-66.84 -65.478)" fill="#1dae44"/>
    <path id="Path_48" data-name="Path 48" d="M477.517,206.819h.3a1.023,1.023,0,0,0,.387-.108.22.22,0,0,0,.129-.108.244.244,0,0,0,.065-.172.962.962,0,0,0-.022-.237c-.021-.086-.064-.194-.107-.323a1.054,1.054,0,0,0-.172-.28.941.941,0,0,0-.172-.151.258.258,0,0,0-.172-.043.506.506,0,0,0-.172.043.754.754,0,0,0-.172.108,1.075,1.075,0,0,0-.172.151,2.287,2.287,0,0,0-.193.237,1.6,1.6,0,0,0-.151.258,1.316,1.316,0,0,0-.107.258c-.021.086-.065.151-.086.237a1.631,1.631,0,0,1,.237.086c.086.021.172.043.28.064A.716.716,0,0,1,477.517,206.819Z" transform="translate(-388.216 -175.297)" fill="#1dae44"/>
    <path id="Path_49" data-name="Path 49" d="M438.506,151.337a.955.955,0,0,0-.236-.172.6.6,0,0,0-.28-.065,1.258,1.258,0,0,0-.279.043.887.887,0,0,0-.237.151l-.774.774.817.817a.263.263,0,0,0,.194.086.276.276,0,0,0,.215-.086l.581-.581a.557.557,0,0,0,.151-.237.59.59,0,0,0,.043-.28.742.742,0,0,0-.065-.28A.563.563,0,0,0,438.506,151.337Z" transform="translate(-356.816 -132.673)" fill="#1dae44"/>
    <path id="Path_50" data-name="Path 50" d="M383.222,111.809a1.182,1.182,0,0,0-.194-.151l-.323-.129c-.108-.021-.237-.043-.344-.065a1.839,1.839,0,0,0-.344,0,.687.687,0,0,0-.3.065,1.316,1.316,0,0,0-.258.108.382.382,0,0,0-.151.172l-.409.817,1.892.946.452-.925a.884.884,0,0,0,.107-.344.6.6,0,0,0-.021-.28A.265.265,0,0,0,383.222,111.809Z" transform="translate(-313.015 -101.553)" fill="#1dae44"/>
    <path id="Path_51" data-name="Path 51" d="M482.372,226.584a.955.955,0,0,0,.237.172.6.6,0,0,0,.28.064.732.732,0,0,0,.3-.043l.731-.258a1.6,1.6,0,0,0,.258-.151.954.954,0,0,0,.172-.237,1.065,1.065,0,0,0,.086-.28.59.59,0,0,0-.043-.28.888.888,0,0,0-.151-.237.954.954,0,0,0-.236-.172.6.6,0,0,0-.28-.065,1.453,1.453,0,0,0-.3.043l-.731.258a.743.743,0,0,0-.258.151.953.953,0,0,0-.172.237.6.6,0,0,0-.065.28.635.635,0,0,0,.043.28A.374.374,0,0,0,482.372,226.584Z" transform="translate(-392.533 -190.761)" fill="#1dae44"/>
    <path id="Path_52" data-name="Path 52" d="M302.5,66a48.178,48.178,0,0,0-5.741-.6,4.264,4.264,0,0,1,.946.688,3.766,3.766,0,0,1,.9,1.312,4.1,4.1,0,0,1,.323,1.634,4.214,4.214,0,0,1-.237,1.441,4.782,4.782,0,0,1-.624,1.183,5.735,5.735,0,0,1-.925.989q-.516.452-1.1.9L293.6,75.463h5.268v2.064c.559.065,1.14.151,1.7.237a38.17,38.17,0,0,1,32,37.048,9.391,9.391,0,0,1,6.9-1.591,9.247,9.247,0,0,1,5.01,2.537A50.064,50.064,0,0,0,302.5,66Zm29.953,22.233a.244.244,0,0,1,.172.065.933.933,0,0,1,.151.129.643.643,0,0,1,.086.172.3.3,0,0,1,0,.194.244.244,0,0,1-.065.172.935.935,0,0,1-.129.151.644.644,0,0,1-.172.086.3.3,0,0,1-.194,0,.244.244,0,0,1-.172-.065.936.936,0,0,1-.151-.129.643.643,0,0,1-.086-.172.3.3,0,0,1,0-.194.244.244,0,0,1,.065-.172.933.933,0,0,1,.129-.151.643.643,0,0,1,.172-.086A.291.291,0,0,1,332.455,88.235Zm-1.226-.538a.244.244,0,0,1,.065-.172.935.935,0,0,1,.129-.151.644.644,0,0,1,.172-.086.3.3,0,0,1,.194,0,.244.244,0,0,1,.172.065.934.934,0,0,1,.151.129.643.643,0,0,1,.086.172.3.3,0,0,1,0,.194.244.244,0,0,1-.065.172.933.933,0,0,1-.129.151.644.644,0,0,1-.172.086.3.3,0,0,1-.193,0,.244.244,0,0,1-.172-.065.935.935,0,0,1-.15-.129.645.645,0,0,1-.086-.172Zm-4.623-5.483a.386.386,0,0,1,.108-.151.468.468,0,0,1,.172-.108.457.457,0,0,1,.387,0,.753.753,0,0,1,.172.108.468.468,0,0,1,.108.172.628.628,0,0,1,.043.194.405.405,0,0,1-.043.172.386.386,0,0,1-.108.151.468.468,0,0,1-.172.108.665.665,0,0,1-.172.043.4.4,0,0,1-.172-.043.386.386,0,0,1-.151-.108.468.468,0,0,1-.108-.172.665.665,0,0,1-.043-.172A.217.217,0,0,1,326.606,82.215Zm-8.6-6.623a.244.244,0,0,1,.065-.172.937.937,0,0,1,.129-.151.432.432,0,0,1,.172-.086.3.3,0,0,1,.194,0,.244.244,0,0,1,.172.065.935.935,0,0,1,.151.129.432.432,0,0,1,.086.172.3.3,0,0,1,0,.194.244.244,0,0,1-.065.172.935.935,0,0,1-.129.151.432.432,0,0,1-.172.086.3.3,0,0,1-.193,0,.244.244,0,0,1-.172-.065.936.936,0,0,1-.151-.129.432.432,0,0,1-.086-.172Zm-11.418-5.075a.432.432,0,0,1,.086-.172.933.933,0,0,1,.151-.129.562.562,0,0,1,.172-.065.6.6,0,0,1,.194.021.432.432,0,0,1,.172.086.937.937,0,0,1,.129.151c.021.065.043.108.064.172a.6.6,0,0,1-.021.194.432.432,0,0,1-.086.172.935.935,0,0,1-.151.129.562.562,0,0,1-.172.065.6.6,0,0,1-.194-.021.432.432,0,0,1-.172-.086.935.935,0,0,1-.129-.151c-.021-.065-.043-.108-.065-.172A.6.6,0,0,1,306.587,70.518Zm-3.075-.731a.432.432,0,0,1,.086-.172l.129-.129a.244.244,0,0,1,.172-.065.3.3,0,0,1,.194,0,.433.433,0,0,1,.172.086l.129.129a.244.244,0,0,1,.065.172.3.3,0,0,1,0,.194,1.481,1.481,0,0,1-.065.172l-.129.129a.244.244,0,0,1-.172.064.3.3,0,0,1-.194,0,1.481,1.481,0,0,1-.172-.064l-.129-.129a.244.244,0,0,1-.065-.172A.806.806,0,0,1,303.513,69.786Zm-1.118-.215a1.486,1.486,0,0,1,.065-.172l.129-.129a.244.244,0,0,1,.172-.065.3.3,0,0,1,.194,0,.432.432,0,0,1,.172.086l.129.129a.244.244,0,0,1,.065.172.3.3,0,0,1,0,.194,1.487,1.487,0,0,1-.065.172l-.129.129a.244.244,0,0,1-.172.065.3.3,0,0,1-.194,0,1.479,1.479,0,0,1-.172-.065l-.129-.129a.244.244,0,0,1-.065-.172A.365.365,0,0,1,302.394,69.571Zm5.053,6.9a.468.468,0,0,1-.107.172.386.386,0,0,1-.151.108.506.506,0,0,1-.172.043.6.6,0,0,1-.194-.021.468.468,0,0,1-.172-.108.386.386,0,0,1-.108-.151.506.506,0,0,1-.043-.172.6.6,0,0,1,.022-.194.468.468,0,0,1,.108-.172.385.385,0,0,1,.15-.108.506.506,0,0,1,.172-.043.6.6,0,0,1,.194.021.468.468,0,0,1,.172.108.386.386,0,0,1,.108.151.506.506,0,0,1,.043.172A.6.6,0,0,1,307.447,76.474Zm1.075.366a.468.468,0,0,1-.108.172.385.385,0,0,1-.151.108.506.506,0,0,1-.172.043.6.6,0,0,1-.194-.021.468.468,0,0,1-.172-.108.386.386,0,0,1-.108-.151.506.506,0,0,1-.043-.172.6.6,0,0,1,.021-.194.468.468,0,0,1,.108-.172.386.386,0,0,1,.151-.108.506.506,0,0,1,.172-.043.6.6,0,0,1,.194.021.468.468,0,0,1,.172.108.386.386,0,0,1,.108.151.506.506,0,0,1,.043.172A.3.3,0,0,1,308.523,76.839ZM327.23,85.2a1.934,1.934,0,0,1-.366.559l-.581.581a1.421,1.421,0,0,1-.43.3,1.226,1.226,0,0,1-.473.086,1.155,1.155,0,0,1-.452-.108,1.261,1.261,0,0,1-.409-.28l-1.978-2-.817-.774a.57.57,0,0,0-.129-.108l-4.236-3.118-1.871-1.226a1.6,1.6,0,0,0-.258-.151l-4.365-2.107-1.333-.559-2.3-.817-2.258-.667c-.021,0-.064-.021-.086-.021l-1.57-.344.387-1.978a.71.71,0,0,0,0-.3.717.717,0,0,0-.108-.258.925.925,0,0,0-.194-.215.634.634,0,0,0-.28-.108.71.71,0,0,0-.3,0,.93.93,0,0,0-.258.108.61.61,0,0,0-.194.215.634.634,0,0,0-.108.28l-.151.753a.25.25,0,0,0,.043.215.334.334,0,0,0,.172.129l.559.108-.194.946-.559-.108a1.433,1.433,0,0,1-.452-.194,1.738,1.738,0,0,1-.344-.344,1.553,1.553,0,0,1-.194-.43.964.964,0,0,1,0-.495l.151-.753a1.7,1.7,0,0,1,.258-.645,1.652,1.652,0,0,1,.473-.473,1.508,1.508,0,0,1,.6-.258,1.738,1.738,0,0,1,.667,0,1.6,1.6,0,0,1,.624.258,1.355,1.355,0,0,1,.452.473,2.124,2.124,0,0,1,.258.6,1.738,1.738,0,0,1,0,.667l-.215,1.032.516.151.946.28.753-2.666.925.258-.753,2.666.667.215.8.258.925-2.623.9.323-.925,2.623.667.237,1.376.538.344.151,1.828-3.677.86.43-.8,1.613a3.315,3.315,0,0,1,.8.022,2.628,2.628,0,0,1,.731.215,1.735,1.735,0,0,1,.516.366,1.234,1.234,0,0,1,.323.495,1.574,1.574,0,0,1,.065.645,2.71,2.71,0,0,1-.237.8l-.452.925.624.3.71.409,1.4-2.279.817.495-1.419,2.344.581.387.774.495,1.656-2.215.753.581-1.656,2.215.473.344,1.656-2.215.774.581-1.656,2.215.473.344L322.8,79.7l.774.581-1.656,2.215.366.28.065.065.946.882.495.495.774-.774a1.478,1.478,0,0,1,.559-.366,1.279,1.279,0,0,1,.624-.108,1.542,1.542,0,0,1,.624.129,1.871,1.871,0,0,1,.559.387,1.575,1.575,0,0,1,.366.559,1.619,1.619,0,0,1,.129.624C327.359,84.8,327.316,85.01,327.23,85.2Zm.3-1.656a.468.468,0,0,1-.108-.172.665.665,0,0,1-.043-.172.628.628,0,0,1,.043-.194.386.386,0,0,1,.108-.151.468.468,0,0,1,.172-.108.457.457,0,0,1,.387,0,.755.755,0,0,1,.172.108.468.468,0,0,1,.107.172.628.628,0,0,1,.043.194.4.4,0,0,1-.043.172.386.386,0,0,1-.107.151.469.469,0,0,1-.172.108.664.664,0,0,1-.172.043.506.506,0,0,1-.172-.043C327.638,83.634,327.574,83.612,327.531,83.548Zm5.741,17.761a1.567,1.567,0,0,1,.043-1.247l-.387-1.1c-.021-.043-.021-.064-.043-.108l-1.871-3.849-.43-.839a1.89,1.89,0,0,1-.129-.215l-.731-1.1-.968-1.333,1.634-1.183a.61.61,0,0,0,.194-.215,1.08,1.08,0,0,0,.108-.28.614.614,0,0,0,0-.28.815.815,0,0,0-.129-.28.675.675,0,0,0-.495-.28.739.739,0,0,0-.3.022.666.666,0,0,0-.28.129l-.624.452a.219.219,0,0,0-.107.172A.265.265,0,0,0,328.8,90l.323.452-.774.559-.323-.452a.856.856,0,0,1-.194-.452,1.171,1.171,0,0,1-.021-.473,1.3,1.3,0,0,1,.172-.452,1.113,1.113,0,0,1,.344-.366l.624-.452a1.475,1.475,0,0,1,.624-.28,1.741,1.741,0,0,1,.667-.022,2.146,2.146,0,0,1,.624.215,1.417,1.417,0,0,1,.495.452,1.638,1.638,0,0,1,.28.624,2.313,2.313,0,0,1,.021.667,1.7,1.7,0,0,1-.237.624,1.657,1.657,0,0,1-.452.495l-.86.624.409.559.8,1.247.559,1.032.538,1.118.194-.323a1.606,1.606,0,0,1,.258-.3h0a1.48,1.48,0,0,1,.28-.237l.323-.194a1.566,1.566,0,0,1,.516-.151,1.072,1.072,0,0,1,.516.065,1.218,1.218,0,0,1,.495.344,2.971,2.971,0,0,1,.452.667,2.426,2.426,0,0,1,.237.774,1.353,1.353,0,0,1-.043.6,1.228,1.228,0,0,1-.28.452,1.28,1.28,0,0,1-.452.3l-.323.129a1.936,1.936,0,0,1-.344.064,2.336,2.336,0,0,1-.387.022,1.894,1.894,0,0,1-.366-.043l.344.667a1.052,1.052,0,0,1,.064.151l.215.6.129-.065a.306.306,0,0,1,.129-.043l.731-.258a1.805,1.805,0,0,1,.667-.108,2.339,2.339,0,0,1,.645.151,2.164,2.164,0,0,1,.538.366,1.362,1.362,0,0,1,.344.559,1.4,1.4,0,0,1,.086.667,2.066,2.066,0,0,1-.172.624,1.807,1.807,0,0,1-.387.516,1.868,1.868,0,0,1-.559.344l-.731.258a1.737,1.737,0,0,1-.667.108,2.339,2.339,0,0,1-.645-.151,1.832,1.832,0,0,1-.538-.366A1.311,1.311,0,0,1,333.272,101.309Zm1.677,5.784a1.482,1.482,0,0,1-.065.172l-.129.129a.244.244,0,0,1-.172.065.3.3,0,0,1-.194,0,1.484,1.484,0,0,1-.172-.065l-.129-.129a.432.432,0,0,1-.086-.172.3.3,0,0,1,0-.194,1.47,1.47,0,0,1,.065-.172l.129-.129a.244.244,0,0,1,.172-.064.3.3,0,0,1,.194,0c.065.022.108.043.172.064l.129.129a.244.244,0,0,1,.065.172A.209.209,0,0,1,334.949,107.093Zm.774-2.752.129.452.495,2.258a.313.313,0,0,0,.129.194.25.25,0,0,0,.215.043l.731-.151a.816.816,0,0,0,.366-.151,1.017,1.017,0,0,0,.215-.215,1.212,1.212,0,0,0,.086-.258,1.322,1.322,0,0,0-.022-.28.848.848,0,0,0-.107-.3,1.314,1.314,0,0,0-.151-.3,1.219,1.219,0,0,0-.172-.28c-.065-.086-.108-.151-.151-.215l.774-.581c.043.064.107.172.194.28.064.108.151.237.215.366s.129.28.194.409a1.639,1.639,0,0,1,.129.43,2.036,2.036,0,0,1,.043.624,1.292,1.292,0,0,1-.151.581,1.177,1.177,0,0,1-.452.473,2.231,2.231,0,0,1-.817.323l-.731.151a.964.964,0,0,1-.495,0,1.109,1.109,0,0,1-.43-.194,1.307,1.307,0,0,1-.344-.344,1.435,1.435,0,0,1-.194-.452l-.473-2.193-.129-.452a1.29,1.29,0,0,1-.043-.495,1.022,1.022,0,0,1,.151-.452,1.6,1.6,0,0,1,.3-.366,1.68,1.68,0,0,1,.43-.237l3.677-1.032.258.925-3.677,1.032a.267.267,0,0,0-.172.129A.438.438,0,0,0,335.723,104.341Z" transform="translate(-244.486 -65.4)" fill="#1dae44"/>
    <path id="Path_53" data-name="Path 53" d="M410.1,461.622l.989,1.677.258-.193-1.2-1.505Z" transform="translate(-335.936 -376.408)" fill="#1dae44"/>
    <path id="Path_54" data-name="Path 54" d="M359.23,483.649a.215.215,0,0,0-.086-.107.137.137,0,0,0-.129,0l-.215.065,1.1,3.29.215-.065a.214.214,0,0,0,.108-.086.137.137,0,0,0,0-.129Z" transform="translate(-295.667 -393.619)" fill="#1dae44"/>
    <path id="Path_55" data-name="Path 55" d="M439.409,432.243a.158.158,0,0,0-.129-.043.306.306,0,0,0-.129.043l-.151.172,2.516,2.387.15-.172a.158.158,0,0,0,.043-.129.186.186,0,0,0-.065-.129Z" transform="translate(-358.622 -353.33)" fill="#1dae44"/>
    <path id="Path_56" data-name="Path 56" d="M345.924,488.7a.273.273,0,0,0,.021-.129l-.215-.839a.215.215,0,0,0-.086-.108.272.272,0,0,0-.129-.022l-.215.065.3,1.183.215-.065A.215.215,0,0,0,345.924,488.7Z" transform="translate(-285.069 -396.818)" fill="#1dae44"/>
    <path id="Path_57" data-name="Path 57" d="M347.93,496.629a.215.215,0,0,0-.086-.108.273.273,0,0,0-.129-.021l-.215.065.366,1.441.215-.065a.214.214,0,0,0,.108-.086.273.273,0,0,0,.022-.129Z" transform="translate(-286.796 -403.804)" fill="#1dae44"/>
    <path id="Path_58" data-name="Path 58" d="M332.6,493.5l.215,1.935.323-.065-.473-1.871Z" transform="translate(-275.1 -401.449)" fill="#1dae44"/>
    <path id="Path_59" data-name="Path 59" d="M477.49,377.293l-.989-.452a.137.137,0,0,0-.129,0c-.043.021-.086.043-.086.086l-.086.215,1.312.581.086-.215a.137.137,0,0,0,0-.129A.215.215,0,0,0,477.49,377.293Z" transform="translate(-387.823 -309.862)" fill="#1dae44"/>
    <path id="Path_60" data-name="Path 60" d="M338.948,303.016a6.012,6.012,0,0,0-6.752,4.343c-.022.215-.064.43-.086.645A38.236,38.236,0,0,1,296.8,339.936a3.512,3.512,0,0,1,.9.667,3.765,3.765,0,0,1,.9,1.312,4.1,4.1,0,0,1,.323,1.634,4.213,4.213,0,0,1-.237,1.441,4.782,4.782,0,0,1-.624,1.183,5.737,5.737,0,0,1-.925.989q-.516.452-1.1.9l-2.451,1.914h5.268v1.763a50.123,50.123,0,0,0,44.961-41.822l.129-.839A5.982,5.982,0,0,0,338.948,303.016Zm-35.264,44.273-.645.108c-.065.021-.107-.022-.129-.086l-.194-.753-.43.086.086.774c0,.065-.021.108-.086.108l-.645.107c-.065.022-.108-.021-.108-.086l-.323-4.817a.118.118,0,0,1,.086-.129l.925-.172c.064-.022.107.021.129.086l1.376,4.644C303.771,347.225,303.749,347.268,303.685,347.289Zm3.053-1.312a1.419,1.419,0,0,1-.107.323.684.684,0,0,1-.237.258.748.748,0,0,1-.323.151l-1.032.258a.09.09,0,0,1-.129-.064l-1.183-4.666a.09.09,0,0,1,.065-.129l1.032-.258a1.049,1.049,0,0,1,.366-.021,1.42,1.42,0,0,1,.323.107.684.684,0,0,1,.258.237.748.748,0,0,1,.151.323l.172.688a.68.68,0,0,1-.065.581,1.034,1.034,0,0,1-.194.237.859.859,0,0,1,.28.086.422.422,0,0,1,.194.194,1.112,1.112,0,0,1,.129.28l.258,1.032A.635.635,0,0,1,306.738,345.978Zm3.053-.667a.888.888,0,0,1-.215.28.844.844,0,0,1-.3.172l-1.011.344a.09.09,0,0,1-.129-.064l-1.527-4.559a.09.09,0,0,1,.065-.129l1.011-.344a1.006,1.006,0,0,1,.366-.043,1.165,1.165,0,0,1,.323.086.888.888,0,0,1,.28.215.844.844,0,0,1,.172.3l1.011,3.032a1.006,1.006,0,0,1,.043.366A.586.586,0,0,1,309.791,345.311Zm3.075-.925-1.441.6a.09.09,0,0,1-.129-.065l-1.828-4.451a.09.09,0,0,1,.064-.129l1.441-.6a.09.09,0,0,1,.129.065l.237.581a.09.09,0,0,1-.065.129l-.753.3.387.946.645-.28a.09.09,0,0,1,.129.065l.237.581a.09.09,0,0,1-.065.129l-.645.28.559,1.355.753-.3a.09.09,0,0,1,.129.064l.237.581C312.952,344.322,312.931,344.365,312.866,344.386Zm2.881-1.355-.86.43h-.022l-.581.28c-.065.022-.108.022-.129-.043l-2.129-4.3c-.022-.064-.022-.107.043-.129l.581-.28c.065-.022.108-.022.129.043l1.806,3.655.8-.387c.065-.021.108-.021.129.043l.28.581C315.833,342.946,315.812,343.01,315.747,343.032Zm2.946-1.656-.559.323c-.065.043-.108.022-.129-.043l-1.032-1.763-.409.237,1.032,1.763c.043.065.022.108-.043.129l-.559.323c-.065.043-.108.022-.129-.043l-2.43-4.15c-.043-.064-.022-.107.043-.129l.559-.323c.065-.043.108-.022.129.043l.968,1.656.409-.237-.968-1.656c-.043-.064-.022-.107.043-.129l.559-.323c.065-.043.108-.021.129.043l2.43,4.15C318.758,341.29,318.736,341.333,318.693,341.376Zm2.881-1.935-.538.366a.106.106,0,0,1-.151-.022l-.495-.6-.366.258.387.667a.127.127,0,0,1-.022.151l-.538.366c-.065.043-.108.021-.129-.043l-2.279-4.257c-.022-.064-.022-.107.043-.15l.774-.538a.1.1,0,0,1,.151.022l3.161,3.655Q321.671,339.409,321.574,339.441Zm3.139-2.473-.538.43a.092.092,0,0,1-.151-.021l-1.419-1.742.8,1.72v.043h-.043l-1.527-1.14L323.252,338a.092.092,0,0,1-.022.15l-.538.43a.092.092,0,0,1-.15-.022l-3.032-3.72a.092.092,0,0,1,.022-.151L320,334.3c.022-.021.043-.021.086-.021.021,0,.065.021.086.021l2.064,1.634-1.183-2.344v-.086c0-.022.021-.065.043-.065l.473-.387a.092.092,0,0,1,.151.021l3.032,3.72C324.778,336.882,324.778,336.925,324.714,336.968Zm1.634-1.484-.473.43c-.043.043-.086.043-.151,0l-3.268-3.5c-.043-.043-.043-.086,0-.151l.473-.43c.043-.043.086-.043.151,0l3.29,3.5A.127.127,0,0,1,326.348,335.485Zm2.021-2.15a.9.9,0,0,1-.194.3l-.731.774c-.043.043-.086.043-.15,0l-3.483-3.311c-.043-.043-.043-.086,0-.151l.731-.774a1.526,1.526,0,0,1,.3-.215.891.891,0,0,1,.344-.065.973.973,0,0,1,.344.065.9.9,0,0,1,.3.193l2.322,2.215a1.528,1.528,0,0,1,.215.3.891.891,0,0,1,.064.344A1.061,1.061,0,0,1,328.369,333.334Zm3.935-4.709-.409.559a.1.1,0,0,1-.151.022l-1.806-1.355,1.183,1.484c.022.022.022.043,0,.043,0,.021-.022.021-.043,0l-1.763-.731L331.121,330a.1.1,0,0,1,.022.15l-.409.559a.1.1,0,0,1-.151.022l-3.849-2.881a.1.1,0,0,1-.021-.15l.366-.495c.022-.022.043-.043.065-.043h.086l2.387,1.075-1.7-1.978c-.022-.021-.022-.043-.022-.086a.129.129,0,0,1,.022-.086l.366-.495a.1.1,0,0,1,.151-.021l3.849,2.881C332.326,328.539,332.326,328.582,332.3,328.625Zm1.72-2.623-.839,1.312c-.043.064-.086.064-.129.022l-4.064-2.58c-.065-.043-.065-.086-.022-.129l.839-1.312c.043-.065.086-.065.129-.022l.538.344c.065.043.065.086.022.129l-.43.688.86.559.387-.6c.043-.065.086-.065.129-.022l.538.344c.065.043.065.086.022.129l-.387.6,1.247.8.43-.688c.043-.064.086-.064.129-.021l.538.344C334.046,325.895,334.046,325.938,334.024,326Zm1.7-3.032-.3.559a.086.086,0,0,1-.129.043l-1.806-.968-.215.409,1.806.968a.086.086,0,0,1,.043.129l-.3.559a.086.086,0,0,1-.129.043l-4.236-2.279a.086.086,0,0,1-.043-.129l.3-.559a.086.086,0,0,1,.129-.043l1.7.9.215-.409-1.7-.9a.086.086,0,0,1-.043-.129l.3-.559a.086.086,0,0,1,.129-.043l4.236,2.279C335.744,322.863,335.744,322.906,335.723,322.97Zm1.527-3.311-.258.6c-.022.022-.022.043-.065.065a.129.129,0,0,1-.086.021l-1.806-.237,1.7.753-.065-.022c.043.022.043.065.022.108l-.258.581c-.021.064-.065.086-.129.043l-4.386-1.957c-.065-.022-.086-.065-.043-.129l.43-.989a.97.97,0,0,1,.215-.3.9.9,0,0,1,.3-.194.891.891,0,0,1,.344-.065.631.631,0,0,1,.344.086l1.075.473a.809.809,0,0,1,.387.323.939.939,0,0,1,.15.452l2.129.237C337.25,319.573,337.271,319.616,337.25,319.659Zm.71-1.849-.215.6a.09.09,0,0,1-.129.065l-4.494-1.677a.09.09,0,0,1-.064-.129l.215-.6A.09.09,0,0,1,333.4,316l4.494,1.677Q337.991,317.745,337.959,317.81Zm3.612-8.278a3.627,3.627,0,1,1-2.989-4.171A3.643,3.643,0,0,1,341.572,309.531Z" transform="translate(-244.486 -251.862)" fill="#1dae44"/>
    <path id="Path_61" data-name="Path 61" d="M160.287,445.043a.306.306,0,0,0-.129-.043.118.118,0,0,0-.108.065l-2.107,2.408a.306.306,0,0,0-.043.129.118.118,0,0,0,.065.108l.043.043a.306.306,0,0,0,.129.043.118.118,0,0,0,.107-.065l2.107-2.408a.306.306,0,0,0,.043-.129.118.118,0,0,0-.065-.108Z" transform="translate(-137.965 -363.377)" fill="#1dae44"/>
    <path id="Path_62" data-name="Path 62" d="M117.715,387.946a.142.142,0,0,0,.129-.022l.968-.495a.215.215,0,0,0,.086-.107.142.142,0,0,0-.022-.129l-.108-.194-1.269.645.108.194C117.629,387.9,117.672,387.946,117.715,387.946Z" transform="translate(-106.252 -317.849)" fill="#1dae44"/>
    <path id="Path_63" data-name="Path 63" d="M116.666,337.061a1.7,1.7,0,0,0-.624-.387,2.214,2.214,0,0,0-.753-.129,2.19,2.19,0,0,0-.86.15,1.621,1.621,0,0,0-.624.43,1.875,1.875,0,0,0-.387.667,2.677,2.677,0,0,0-.129.86,1.419,1.419,0,0,0,.129.581,2.775,2.775,0,0,0,.194.344l-1.871,1.462a3.584,3.584,0,0,1-.387-.6,4.383,4.383,0,0,1-.452-1.978,3.687,3.687,0,0,1,.387-1.72,4,4,0,0,1,1.914-1.892,33.77,33.77,0,0,1-4.107-.452,38.17,38.17,0,0,1-32-37.048,9.391,9.391,0,0,1-6.9,1.591,9.247,9.247,0,0,1-5.01-2.537,50,50,0,0,0,41.929,49.735c1.355.215,2.709.387,4.042.495a1.853,1.853,0,0,1-.3-.387,1.62,1.62,0,0,1-.172-.753,1.3,1.3,0,0,1,.086-.516,1.487,1.487,0,0,1,.215-.409,1.616,1.616,0,0,1,.323-.344,4.724,4.724,0,0,1,.387-.3l.194-.151h0l4.171-3.29a3.867,3.867,0,0,0,.43-.409,4.2,4.2,0,0,0,.366-.495,3.063,3.063,0,0,0,.258-.538,1.811,1.811,0,0,0,.086-.581,1.745,1.745,0,0,0-.151-.753A1.3,1.3,0,0,0,116.666,337.061ZM69.705,305.216a1.014,1.014,0,0,1-.129-.323l-.043-.258a1.044,1.044,0,0,1,0-.366.731.731,0,0,1,.151-.323,1.233,1.233,0,0,1,.237-.237,1.014,1.014,0,0,1,.323-.129l3.978-.688c.065-.022.108.022.108.086l.108.624c.022.065-.021.108-.086.108l-3.935.688a.118.118,0,0,0-.108.065.142.142,0,0,0-.022.129v.065a.118.118,0,0,0,.065.108.142.142,0,0,0,.129.021l3.935-.688c.065-.022.108.021.108.086l.108.624c.021.065-.021.108-.086.108l-3.978.688a1.043,1.043,0,0,1-.366,0,.731.731,0,0,1-.323-.151C69.834,305.388,69.77,305.3,69.705,305.216Zm.774,3.612-.108-.452v-.086c.022-.022.022-.043.043-.065l2.107-1.29-2.279.559a.09.09,0,0,1-.129-.064l-.151-.624a.09.09,0,0,1,.064-.129l4.644-1.14a.09.09,0,0,1,.129.065l.108.452v.086c-.022.022-.022.043-.043.065l-2.043,1.269,2.215-.538a.09.09,0,0,1,.129.065l.151.624a.09.09,0,0,1-.065.129l-4.644,1.14C70.544,308.936,70.5,308.893,70.479,308.828Zm.538,1.785-.194-.6a.09.09,0,0,1,.065-.129l4.558-1.4a.09.09,0,0,1,.129.064l.194.6a.09.09,0,0,1-.065.129l-4.558,1.4A.09.09,0,0,1,71.017,310.613Zm.8,2.322-.215-.581c-.021-.065,0-.108.065-.151l4.193-2.43c.064-.022.108-.022.129.043l.258.731a.09.09,0,0,1-.064.129l-2.731,1.312v.022l2.924-.753a.09.09,0,0,1,.129.065l.258.731c.021.065,0,.108-.065.108l-4.773.86A.11.11,0,0,1,71.812,312.935Zm1.29,3.139-.624-1.419a.1.1,0,0,1,.043-.129l4.365-1.914a.1.1,0,0,1,.129.043l.624,1.419a.1.1,0,0,1-.043.129l-.581.258a.1.1,0,0,1-.129-.043l-.323-.731-.946.409.28.645a.1.1,0,0,1-.043.129l-.581.258a.1.1,0,0,1-.129-.043l-.28-.645-1.333.581.323.731a.1.1,0,0,1-.043.129l-.581.258Q73.167,316.171,73.1,316.075Zm1.462,2.9-.3-.581a.129.129,0,0,1-.021-.086.163.163,0,0,1,.043-.086l1.312-1.269-1.634.86.065-.043a.079.079,0,0,1-.108-.043l-.28-.559c-.022-.065-.022-.108.043-.129l4.236-2.193c.064-.022.108-.022.129.043l.495.946a.631.631,0,0,1,.086.344.891.891,0,0,1-.043.344.844.844,0,0,1-.172.3.7.7,0,0,1-.28.215l-1.032.538a.95.95,0,0,1-.473.108.831.831,0,0,1-.452-.172L74.672,319C74.629,319.042,74.586,319.042,74.565,318.977Zm1.527,2.172a.794.794,0,0,1-.3-.15.917.917,0,0,1-.237-.258l-.129-.237a.95.95,0,0,1-.129-.344.931.931,0,0,1,.022-.344.794.794,0,0,1,.151-.3.917.917,0,0,1,.258-.237l.581-.344a.1.1,0,0,1,.151.021l.473.473c.043.043.043.086-.021.108l-.753.452a.215.215,0,0,0-.086.107.142.142,0,0,0,.022.129l.021.043a.215.215,0,0,0,.108.086.142.142,0,0,0,.129-.021l.8-.473c.043-.043.086-.065.129-.108a.186.186,0,0,0,.065-.129l.129-1.14a.77.77,0,0,1,.086-.237.507.507,0,0,1,.194-.172l.731-.43a.95.95,0,0,1,.344-.129.93.93,0,0,1,.344.022.794.794,0,0,1,.3.151.917.917,0,0,1,.237.258l.129.237a.95.95,0,0,1,.129.344.931.931,0,0,1-.021.344.794.794,0,0,1-.151.3.917.917,0,0,1-.258.237l-.237.129a.1.1,0,0,1-.151-.022l-.473-.473c-.043-.043-.043-.086.021-.108l.387-.237a.215.215,0,0,0,.086-.108.142.142,0,0,0-.022-.129l-.021-.043a.215.215,0,0,0-.108-.086.142.142,0,0,0-.129.021l-.559.344a.469.469,0,0,0-.108.086.35.35,0,0,0-.065.129l-.108,1.161a.4.4,0,0,1-.108.237.58.58,0,0,1-.172.151l-1.011.581a.951.951,0,0,1-.344.129A.819.819,0,0,1,76.091,321.149Zm.86,1.7-.344-.516c-.043-.065-.022-.108.021-.129l3.956-2.666c.065-.043.108-.022.129.021l.344.516c.043.064.022.108-.021.129l-3.956,2.666C77.038,322.912,76.995,322.912,76.951,322.848Zm1.333,1.849-.387-.516a.079.079,0,0,1-.021-.065c0-.022.021-.043.043-.064l3.247-2.43-.3-.409c-.043-.043-.043-.108.021-.129l.516-.387c.043-.043.108-.043.129.022l1.1,1.462c.043.043.043.108-.022.129l-.516.387c-.043.043-.108.043-.129-.022l-.3-.409-3.247,2.43Q78.349,324.794,78.285,324.7Zm3.72.968-.452-.538-1.118.946.516.624a.092.092,0,0,1-.022.151l-.473.409a.092.092,0,0,1-.151-.021l-.989-1.183a.092.092,0,0,1,.021-.151l3.655-3.075a.092.092,0,0,1,.151.022l.989,1.183a.092.092,0,0,1-.021.151l-.473.409a.092.092,0,0,1-.151-.021l-.516-.624-.774.667.452.538a.092.092,0,0,1-.021.15l-.473.409A.181.181,0,0,1,82,325.665Zm1.613,4.279a.891.891,0,0,1-.344.064.974.974,0,0,1-.344-.064.9.9,0,0,1-.3-.194l-.194-.194a.9.9,0,0,1-.194-.3.891.891,0,0,1-.065-.344.974.974,0,0,1,.065-.344.9.9,0,0,1,.194-.3l2.322-2.322a.9.9,0,0,1,.3-.193.891.891,0,0,1,.344-.065.973.973,0,0,1,.344.065.9.9,0,0,1,.3.193l.194.194a.9.9,0,0,1,.194.3.892.892,0,0,1,.065.344.974.974,0,0,1-.065.344.9.9,0,0,1-.194.3l-.409.409a.106.106,0,0,1-.151.022l-.538-.387c-.065-.022-.065-.065-.021-.108l.495-.495c.043-.043.043-.065.043-.129a.306.306,0,0,0-.043-.129l-.043-.043c-.043-.043-.065-.043-.129-.043a.305.305,0,0,0-.129.043l-2.258,2.279c-.043.043-.043.065-.043.129a.306.306,0,0,0,.043.129l.043.043c.043.043.065.043.129.043a.306.306,0,0,0,.129-.043l.71-.71c.043-.043.086-.043.108.021l.409.516a.127.127,0,0,1-.021.151l-.624.624A1.283,1.283,0,0,1,83.617,329.944Zm2.172,1.935a.9.9,0,0,1-.323.086.947.947,0,0,1-.344-.043.844.844,0,0,1-.3-.172l-.194-.172a.887.887,0,0,1-.215-.28.9.9,0,0,1-.086-.323.947.947,0,0,1,.043-.344.844.844,0,0,1,.172-.3l2.15-2.473a.887.887,0,0,1,.28-.215.9.9,0,0,1,.323-.086.947.947,0,0,1,.344.043.845.845,0,0,1,.3.172l.194.172a.887.887,0,0,1,.215.28.9.9,0,0,1,.086.323.947.947,0,0,1-.043.344.844.844,0,0,1-.172.3l-2.15,2.473A.887.887,0,0,1,85.789,331.879ZM88,334.244l-.366-.28c-.021-.022-.043-.043-.043-.065v-.086l.817-2.322-1.419,1.871c-.043.043-.086.065-.129.022L86.369,333c-.043-.043-.065-.086-.022-.129l2.881-3.806c.043-.043.086-.065.129-.022l.366.28c.021.021.043.043.043.064v.086l-.8,2.258,1.376-1.806c.043-.043.086-.065.129-.022l.495.387c.043.043.065.086.022.129l-2.838,3.806C88.111,334.287,88.068,334.287,88,334.244Zm2.8,1.29a1.014,1.014,0,0,1-.323.129.925.925,0,0,1-.344,0,.849.849,0,0,1-.323-.129l-.215-.151a.741.741,0,0,1-.258-.258,1.014,1.014,0,0,1-.129-.323.924.924,0,0,1,0-.344.848.848,0,0,1,.129-.323l.366-.559c.043-.065.086-.065.151-.065l.624.215c.065.021.065.064.043.108l-.473.731a.142.142,0,0,0-.022.129.183.183,0,0,0,.065.107l.043.022a.142.142,0,0,0,.129.021.183.183,0,0,0,.108-.065l.516-.774a1.051,1.051,0,0,1,.065-.151.184.184,0,0,0,0-.151l-.387-1.1a1.047,1.047,0,0,1-.021-.258.741.741,0,0,1,.108-.237l.473-.71a.741.741,0,0,1,.258-.258,1.014,1.014,0,0,1,.323-.129.925.925,0,0,1,.344,0,.848.848,0,0,1,.323.129l.215.151a.741.741,0,0,1,.258.258,1.014,1.014,0,0,1,.129.323.924.924,0,0,1,0,.344.849.849,0,0,1-.129.323l-.151.215c-.043.065-.086.065-.151.065l-.624-.215c-.064-.022-.064-.064-.043-.107l.258-.387a.142.142,0,0,0,.021-.129.183.183,0,0,0-.065-.108l-.043-.021a.142.142,0,0,0-.129-.022.183.183,0,0,0-.108.064l-.366.538a.305.305,0,0,0-.043.129v.129l.387,1.1a.522.522,0,0,1,0,.258.9.9,0,0,1-.086.215l-.667,1.011A.683.683,0,0,1,90.8,335.534Zm1.505,1.484-.538-.323c-.021-.021-.043-.021-.043-.065v-.086l2.021-3.5-.43-.258c-.065-.043-.065-.086-.043-.129l.323-.538c.043-.065.086-.065.129-.043l1.591.925c.064.043.064.086.043.129l-.323.538c-.043.065-.086.065-.129.043l-.43-.258-2.021,3.5C92.412,337.039,92.369,337.039,92.3,337.018Zm2.967,1.548-.581-.3c-.065-.022-.065-.065-.043-.129l.3-.71-.387-.194-.387.667c-.043.065-.086.065-.151.043l-.581-.3c-.064-.022-.064-.065-.021-.129l2.623-4.021c.043-.065.086-.065.151-.043l.839.43a.111.111,0,0,1,.065.151l-1.677,4.494C95.379,338.587,95.336,338.609,95.271,338.566Zm2.9,1.269-.409-.172c-.021-.022-.043-.022-.065-.065a.129.129,0,0,1-.022-.086l.215-2.451-.9,2.15c-.021.065-.065.086-.129.043l-.581-.237c-.065-.022-.086-.065-.043-.129l1.849-4.408c.021-.065.064-.086.129-.043l.43.172c.021.022.043.022.064.065a.129.129,0,0,1,.022.086l-.215,2.387.882-2.086c.021-.065.065-.086.129-.043l.581.237c.065.021.086.064.043.129L98.3,339.792A.1.1,0,0,1,98.174,339.835Zm2.322.731a.09.09,0,0,1-.129.065l-.6-.215c-.022,0-.043-.021-.065-.043s-.022-.043,0-.086l1.312-3.827-.473-.172a.09.09,0,0,1-.065-.129l.215-.6a.09.09,0,0,1,.129-.065l1.742.6a.09.09,0,0,1,.065.129l-.215.6a.09.09,0,0,1-.129.065l-.473-.172Zm2.086.753-.6-.172a.09.09,0,0,1-.065-.129l1.333-4.58a.09.09,0,0,1,.129-.065l.6.172a.09.09,0,0,1,.065.129l-1.333,4.58A.09.09,0,0,1,102.582,341.318Zm3.182.8-.452-.108c-.021,0-.043-.021-.065-.043s-.043-.043-.043-.065l-.215-2.451-.516,2.279a.09.09,0,0,1-.129.064l-.624-.15a.09.09,0,0,1-.065-.129l1.075-4.644a.09.09,0,0,1,.129-.065l.452.108c.021,0,.043.022.065.043s.043.043.043.064l.215,2.387.516-2.215a.09.09,0,0,1,.129-.065l.624.151a.09.09,0,0,1,.065.129l-1.075,4.644A.13.13,0,0,1,105.765,342.114Zm3.634-4.322-.108.624c0,.064-.043.086-.108.086l-.8-.129-.172,1.011.688.108c.064,0,.086.043.086.107l-.108.624c0,.064-.043.086-.108.086l-.688-.107-.237,1.441.8.129c.065,0,.086.043.086.108l-.108.624c0,.065-.043.086-.108.086l-1.527-.237c-.065,0-.086-.043-.086-.108l.753-4.709c0-.065.043-.086.108-.086l1.527.237C109.4,337.684,109.42,337.727,109.4,337.792Z" transform="translate(-65.187 -246.73)" fill="#1dae44"/>
    <path id="Path_64" data-name="Path 64" d="M203.7,477.056l.28.151.753-1.785-.043-.021Z" transform="translate(-173.917 -387.241)" fill="#1dae44"/>
  </g>
</svg>
