<svg xmlns="http://www.w3.org/2000/svg" width="76.546" height="76.547" viewBox="0 0 76.546 76.547">
  <path id="remove" d="M11.21,11.211A38.271,38.271,0,1,1,0,38.266,38.271,38.271,0,0,1,11.21,11.211ZM48.192,24.29l4.067,4.073a2.491,2.491,0,0,1,0,3.506l-6.421,6.4,6.421,6.421a2.491,2.491,0,0,1,0,3.506L48.192,52.26a2.491,2.491,0,0,1-3.506,0l-6.421-6.421L31.844,52.26a2.491,2.491,0,0,1-3.506,0l-4.048-4.067a2.491,2.491,0,0,1,0-3.506l6.4-6.421-6.4-6.421a2.491,2.491,0,0,1,0-3.506l4.048-4.048a2.491,2.491,0,0,1,3.506,0l6.421,6.4,6.421-6.4A2.491,2.491,0,0,1,48.192,24.29ZM38.265,6.565a31.707,31.707,0,1,0,22.421,9.286A31.706,31.706,0,0,0,38.265,6.565Z" transform="translate(0 -0.002)" fill="#e92e2e"/>
</svg>
